<?xml version="1.0" encoding="UTF-8" standalone="no" ?>
<!DOCTYPE svg PUBLIC "-//W3C//DTD SVG 1.1//EN" "http://www.w3.org/Graphics/SVG/1.1/DTD/svg11.dtd">
<svg xmlns="http://www.w3.org/2000/svg" xmlns:xlink="http://www.w3.org/1999/xlink" version="1.1" width="106.86735" height="148.8816993598" viewBox="151.92346628800001 101.40305855689999 106.86735 148.8816993598" xml:space="preserve">
<desc>Created with Fabric.js 5.3.0</desc>
<defs>
</defs>
<g transform="matrix(1 0 0 1 205.357141288 175.8439082368)" id="UwbnjyNo-Arag7lQH1g5U"  >
<g style=""   >
		<g transform="matrix(0.9905542171 0 0 1 1 -54.9893196799)" id="zj0qxaOcgOE4pOj8J59vK"  >
<path style="stroke: rgb(189,124,211); stroke-width: 0; stroke-dasharray: none; stroke-linecap: butt; stroke-dashoffset: 0; stroke-linejoin: miter; stroke-miterlimit: 4; fill: rgb(61,168,179); fill-rule: nonzero; opacity: 1;"  transform=" translate(-52.9336735513, -19.4515310167)" d="M 19.45153 38.90306 C 8.714290000000002 38.90306 0 30.188770000000005 0 19.45153 C 0 8.714290000000002 8.71429 0 19.45153 0 L 19.45153 0 L 105.86735 0 L 105.86735 38.90306 L 19.460520000000002 38.90306 C 19.457530000000002 38.90306 19.454530000000002 38.90306 19.45154 38.90306 z" stroke-linecap="round" />
</g>
		<g transform="matrix(1 0 0 1 0 11.2896096799)" id="yIqUkBLKrQL-hQ_Qa6zkq"  >
<path style="stroke: none; stroke-width: 1; stroke-dasharray: none; stroke-linecap: butt; stroke-dashoffset: 0; stroke-linejoin: miter; stroke-miterlimit: 4; fill: rgb(0,135,95); fill-rule: nonzero; opacity: 1;"  transform=" translate(-52.933675, -62.6512397363)" d="M 105.86735 94.90548 L 105.65211000000001 94.90548 L 105.65211000000001 125.30248 L 75.25511 94.90548000000001 L 0 94.90548000000001 L 0 1.4210854715202004e-14 C 0.00284 10.734830000000015 8.71604 19.446290000000015 19.45153 19.446290000000015 C 19.454520000000002 19.446290000000015 105.86436 19.446290000000015 105.86735 19.446290000000015 z" stroke-linecap="round" />
</g>
</g>
</g>
</svg>